<?xml version="1.0" encoding="UTF-8"?>
<svg version="1.1" viewBox="0 0 360 360" xmlns="http://www.w3.org/2000/svg" xmlns:cc="http://creativecommons.org/ns#" xmlns:dc="http://purl.org/dc/elements/1.1/" xmlns:rdf="http://www.w3.org/1999/02/22-rdf-syntax-ns#">
<metadata>
<rdf:RDF>
<cc:Work rdf:about="">
<dc:format>image/svg+xml</dc:format>
<dc:type rdf:resource="http://purl.org/dc/dcmitype/StillImage"/>
<dc:title/>
</cc:Work>
</rdf:RDF>
</metadata>
<defs>
<filter id="b" x="-.012" y="-.012" width="1.024" height="1.024" color-interpolation-filters="sRGB">
<feGaussianBlur stdDeviation="1.3391406"/>
</filter>
<filter id="a" x="-.06" y="-.06" width="1.12" height="1.12" color-interpolation-filters="sRGB">
<feGaussianBlur stdDeviation="6.695703"/>
</filter>
</defs>
<path transform="translate(0 6)" d="m180 46.086c-73.958 0-133.91 59.956-133.91 133.91s59.956 133.91 133.91 133.91 133.91-59.956 133.91-133.91-59.956-133.91-133.91-133.91zm0.0469 11.125-0.0469 0.0293c56.224 0 103.63 37.781 118.16 89.338-12.483 25.826-30.323 49.07-51.988 67.875-10.426 9.02-21.808 17.066-34.377 22.729-12.569 5.6626-26.4 8.8762-40.174 8.0918-10.33-0.60261-20.566-3.4824-29.596-8.5137 24.009-13.009 45.655-30.341 63.379-51.098 11.67-13.63 21.809-29.126 25.73-46.611 1.9896-8.7426 2.2959-17.887 0.47851-26.668-1.8174-8.7809-5.8728-17.121-12.014-23.664-5.9974-6.3704-13.868-10.904-22.305-13.219-8.4174-2.3244-17.409-2.5062-26.018-0.9375-17.217 3.1565-32.619 13.163-44.93 25.588-21.742 21.904-35.181 52.818-32.713 83.58 1.2435 15.381 6.3898 30.493 15.209 43.139 1.98 2.8313 4.152 5.5201 6.4668 8.0644-12.865 4.5244-26.208 7.7273-39.695 9.5352-11.603-18.748-18.309-40.843-18.309-64.498 0-67.817 54.942-122.76 122.74-122.76zm0.72851 24.764-0.01 0.03906c8.647 0 17.332 2.6211 24.219 7.8438 6.1983 4.687 10.808 11.325 13.391 18.652 2.6113 7.327 3.2822 15.275 2.3926 23.004-1.7696 15.448-9.5663 29.615-18.979 41.992-16.672 21.904-38.835 39.437-63.475 51.719-2.5157 1.2435-5.0697 2.4479-7.6523 3.5957-5.3565-4.687-9.9468-10.234-13.467-16.451-7.3174-12.97-9.7284-28.361-8.3223-43.178 1.4348-14.826 6.5046-29.097 13.344-42.326 7.92-15.333 18.719-29.843 33.832-38.193 7.5565-4.18 16.099-6.6973 24.727-6.6973zm120.88 81.617c0.71209 5.3558 1.0938 10.814 1.0938 16.369 0 67.798-54.922 122.76-122.72 122.76-38.07 0-72.123-17.334-94.602-44.547 13.889-3.1565 27.472-7.699 40.5-13.467 5.7104 4.3235 11.996 7.8818 18.691 10.445 19.255 7.3844 41.129 6.3118 60.623-0.43164 19.484-6.753 36.779-18.842 51.844-32.951 17.933-16.758 33.059-36.515 44.57-58.18z" filter="url(#a)" opacity=".1"/>
<path transform="translate(0 2)" d="m180 46.086c-73.958 0-133.91 59.956-133.91 133.91s59.956 133.91 133.91 133.91 133.91-59.956 133.91-133.91-59.956-133.91-133.91-133.91zm0.0469 11.125-0.0469 0.0293c56.224 0 103.63 37.781 118.16 89.338-12.483 25.826-30.323 49.07-51.988 67.875-10.426 9.02-21.808 17.066-34.377 22.729-12.569 5.6626-26.4 8.8762-40.174 8.0918-10.33-0.60261-20.566-3.4824-29.596-8.5137 24.009-13.009 45.655-30.341 63.379-51.098 11.67-13.63 21.809-29.126 25.73-46.611 1.9896-8.7426 2.2959-17.887 0.47851-26.668-1.8174-8.7809-5.8728-17.121-12.014-23.664-5.9974-6.3704-13.868-10.904-22.305-13.219-8.4174-2.3244-17.409-2.5062-26.018-0.9375-17.217 3.1565-32.619 13.163-44.93 25.588-21.742 21.904-35.181 52.818-32.713 83.58 1.2435 15.381 6.3898 30.493 15.209 43.139 1.98 2.8313 4.152 5.5201 6.4668 8.0644-12.865 4.5244-26.208 7.7273-39.695 9.5352-11.603-18.748-18.309-40.843-18.309-64.498 0-67.817 54.942-122.76 122.74-122.76zm0.72851 24.764-0.01 0.03906c8.647 0 17.332 2.6211 24.219 7.8438 6.1983 4.687 10.808 11.325 13.391 18.652 2.6113 7.327 3.2822 15.275 2.3926 23.004-1.7696 15.448-9.5663 29.615-18.979 41.992-16.672 21.904-38.835 39.437-63.475 51.719-2.5157 1.2435-5.0697 2.4479-7.6523 3.5957-5.3565-4.687-9.9468-10.234-13.467-16.451-7.3174-12.97-9.7284-28.361-8.3223-43.178 1.4348-14.826 6.5046-29.097 13.344-42.326 7.92-15.333 18.719-29.843 33.832-38.193 7.5565-4.18 16.099-6.6973 24.727-6.6973zm120.88 81.617c0.71209 5.3558 1.0938 10.814 1.0938 16.369 0 67.798-54.922 122.76-122.72 122.76-38.07 0-72.123-17.334-94.602-44.547 13.889-3.1565 27.472-7.699 40.5-13.467 5.7104 4.3235 11.996 7.8818 18.691 10.445 19.255 7.3844 41.129 6.3118 60.623-0.43164 19.484-6.753 36.779-18.842 51.844-32.951 17.933-16.758 33.059-36.515 44.57-58.18z" filter="url(#b)" opacity=".3"/>
<path d="m180 46.086c-73.958 0-133.91 59.956-133.91 133.91s59.956 133.91 133.91 133.91 133.91-59.956 133.91-133.91-59.956-133.91-133.91-133.91zm0.0469 11.125-0.0469 0.0293c56.224 0 103.63 37.781 118.16 89.338-12.483 25.826-30.323 49.07-51.988 67.875-10.426 9.02-21.808 17.066-34.377 22.729-12.569 5.6626-26.4 8.8762-40.174 8.0918-10.33-0.60261-20.566-3.4824-29.596-8.5137 24.009-13.009 45.655-30.341 63.379-51.098 11.67-13.63 21.809-29.126 25.73-46.611 1.9896-8.7426 2.2959-17.887 0.47851-26.668-1.8174-8.7809-5.8728-17.121-12.014-23.664-5.9974-6.3704-13.868-10.904-22.305-13.219-8.4174-2.3244-17.409-2.5062-26.018-0.9375-17.217 3.1565-32.619 13.163-44.93 25.588-21.742 21.904-35.181 52.818-32.713 83.58 1.2435 15.381 6.3898 30.493 15.209 43.139 1.98 2.8313 4.152 5.5201 6.4668 8.0644-12.865 4.5244-26.208 7.7273-39.695 9.5352-11.603-18.748-18.309-40.843-18.309-64.498 0-67.817 54.942-122.76 122.74-122.76zm0.72851 24.764-0.01 0.03906c8.647 0 17.332 2.6211 24.219 7.8438 6.1983 4.687 10.808 11.325 13.391 18.652 2.6113 7.327 3.2822 15.275 2.3926 23.004-1.7696 15.448-9.5663 29.615-18.979 41.992-16.672 21.904-38.835 39.437-63.475 51.719-2.5157 1.2435-5.0697 2.4479-7.6523 3.5957-5.3565-4.687-9.9468-10.234-13.467-16.451-7.3174-12.97-9.7284-28.361-8.3223-43.178 1.4348-14.826 6.5046-29.097 13.344-42.326 7.92-15.333 18.719-29.843 33.832-38.193 7.5565-4.18 16.099-6.6973 24.727-6.6973zm120.88 81.617c0.71209 5.3558 1.0938 10.814 1.0938 16.369 0 67.798-54.922 122.76-122.72 122.76-38.07 0-72.123-17.334-94.602-44.547 13.889-3.1565 27.472-7.699 40.5-13.467 5.7104 4.3235 11.996 7.8818 18.691 10.445 19.255 7.3844 41.129 6.3118 60.623-0.43164 19.484-6.753 36.779-18.842 51.844-32.951 17.933-16.758 33.059-36.515 44.57-58.18z" fill="#fff"/>
</svg>
